<svg xmlns="http://www.w3.org/2000/svg" width="48" height="48"><path fill="#55b4ed" fill-opacity=".533" d="M24.112 15.835C23.035 18.65 22.197 22.252 24 24c-1.803-1.748-5.378-.8-8.158.362-2.407 1.006-3.588 3.684-2.161 5.873.499.767 1.14 1.58 1.965 2.38.824.799 1.657 1.415 2.438 1.89 2.232 1.36 4.873.097 5.804-2.34C24.965 29.35 25.803 25.748 24 24c1.803 1.748 5.378.8 8.158-.362 2.407-1.006 3.588-3.684 2.162-5.874-.5-.766-1.142-1.58-1.966-2.378a13.801 13.801 0 0 0-2.438-1.892c-2.232-1.358-4.873-.096-5.804 2.341Z"/><path fill="#007fb4" fill-opacity=".533" d="M26.946 19.452a1.001 1.001 0 0 0-1.802-.868l-1.37 2.85a1.001 1.001 0 0 0 1.602 1.147 1 1 0 0 0 1.195 1.567l2.807-1.457a1.001 1.001 0 0 0-.923-1.776l-2.806 1.458c-.09.047-.172.107-.24.175.065-.071.122-.154.167-.246l1.37-2.85Zm-8.75 7.206c.255.49.858.68 1.349.427l2.806-1.458c.09-.047.172-.107.24-.175a1.003 1.003 0 0 0-.167.246l-1.37 2.85a1.001 1.001 0 0 0 1.802.868l1.37-2.85a1.001 1.001 0 0 0-1.602-1.147 1 1 0 0 0-1.195-1.567l-2.807 1.457c-.49.255-.68.859-.426 1.35Z"/><path fill="#c8e6ff" d="M21.129 21.215A4.001 4.001 0 0 0 24.06 28 4.001 4.001 0 0 0 28 23.938 4.003 4.003 0 0 0 23.94 20a4.002 4.002 0 0 0-2.811 1.215Z"/><path fill="#006590" fill-opacity=".186" d="M24 16.288A7.714 7.714 0 0 0 16.288 24 7.714 7.714 0 0 0 24 31.712 7.714 7.714 0 0 0 31.712 24 7.714 7.714 0 0 0 24 16.288Z"/></svg>