<svg xmlns="http://www.w3.org/2000/svg" width="48" height="48"><path fill="#55b4ed" d="M16.555 27.355C19.561 27.139 23.18 26.373 24 24c-.82 2.373 1.55 5.211 3.78 7.238 1.93 1.755 4.858 1.691 6.237-.528.483-.776.948-1.702 1.324-2.787.375-1.085.581-2.1.681-3.01.287-2.597-1.975-4.455-4.577-4.268-3.006.216-6.624.982-7.445 3.355.82-2.373-1.55-5.211-3.78-7.238-1.93-1.755-4.858-1.691-6.238.527a13.864 13.864 0 0 0-1.323 2.788 13.801 13.801 0 0 0-.681 3.01c-.287 2.597 1.975 4.455 4.577 4.268Z"/><path fill="#007fb4" d="M18.632 23.255a1.001 1.001 0 0 0-.023 2l3.162.036a1.001 1.001 0 0 0 .36-1.937 1 1 0 0 0 .915-1.746l-2.509-1.926a1.001 1.001 0 0 0-1.217 1.587l2.508 1.926c.081.062.17.11.26.144a1.003 1.003 0 0 0-.293-.048l-3.163-.036Zm10.233 4.878a1.001 1.001 0 0 0-.185-1.402l-2.508-1.926a1.003 1.003 0 0 0-.26-.144c.092.03.191.046.293.048l3.163.036a1.001 1.001 0 0 0 .023-2l-3.162-.036a1.001 1.001 0 0 0-.36 1.937 1 1 0 0 0-.915 1.746l2.509 1.926a1.001 1.001 0 0 0 1.402-.185Z"/><path fill="#c8e6ff" d="M22.692 27.78a4.001 4.001 0 0 0 4.905-5.528 4.001 4.001 0 0 0-5.346-1.85 4.003 4.003 0 0 0-1.849 5.346 4.002 4.002 0 0 0 2.29 2.032Z"/><path fill="none" d="M24 20.04a3.961 3.961 0 0 0-2.8 6.76 3.961 3.961 0 0 0 5.6 0 3.961 3.961 0 0 0 0-5.6 3.961 3.961 0 0 0-2.8-1.16Z"/></svg>