<svg xmlns="http://www.w3.org/2000/svg" width="48" height="48"><path fill="#55b4ed" d="M16.123 26.15c3.002.257 6.695.066 7.877-2.15-1.182 2.216.717 5.39 2.603 7.74 1.632 2.035 4.533 2.43 6.242.453a13.801 13.801 0 0 0 1.743-2.546c.54-1.013.903-1.984 1.144-2.866.689-2.52-1.255-4.71-3.855-4.93-3.002-.258-6.695-.067-7.877 2.149 1.182-2.216-.717-5.39-2.603-7.74-1.632-2.035-4.533-2.43-6.243-.454a13.864 13.864 0 0 0-1.742 2.547 13.801 13.801 0 0 0-1.144 2.866c-.689 2.52 1.255 4.71 3.855 4.93Z"/><path fill="#007fb4" d="M18.815 22.426a1.001 1.001 0 0 0-.336 1.972l3.118.53a1.001 1.001 0 0 0 .659-1.858 1 1 0 0 0 1.175-1.582l-2.176-2.294a1.001 1.001 0 0 0-1.451 1.377l2.176 2.294c.071.074.15.136.235.183a1.003 1.003 0 0 0-.283-.093l-3.117-.53Zm9.344 6.417c.4-.38.417-1.013.037-1.414l-2.176-2.294a1.003 1.003 0 0 0-.235-.183c.087.044.182.075.283.093l3.117.53a1.001 1.001 0 0 0 .336-1.973l-3.118-.53a1.001 1.001 0 0 0-.659 1.858 1 1 0 0 0-1.175 1.582l2.176 2.294c.38.4 1.013.417 1.414.037Z"/><path fill="#c8e6ff" d="M22.118 27.53a4.001 4.001 0 0 0 5.708-4.695 4.001 4.001 0 0 0-4.991-2.662 4.003 4.003 0 0 0-2.662 4.991 4.002 4.002 0 0 0 1.945 2.365Z"/><path fill="none" d="M24 20.04a3.961 3.961 0 0 0-2.8 6.76 3.961 3.961 0 0 0 5.6 0 3.961 3.961 0 0 0 0-5.6 3.961 3.961 0 0 0-2.8-1.16Z"/></svg>