<svg xmlns="http://www.w3.org/2000/svg" width="48" height="48"><path fill="#55b4ed" d="M15.84 23.675c2.786 1.15 6.365 2.081 8.16.325-1.795 1.756-.941 5.355.149 8.164.942 2.433 3.589 3.684 5.814 2.315.78-.48 1.61-1.1 2.43-1.903.82-.803 1.459-1.619 1.954-2.388 1.417-2.195.224-4.868-2.188-5.863-2.785-1.15-6.364-2.081-8.159-.325 1.795-1.756.941-5.355-.149-8.164-.942-2.433-3.589-3.684-5.815-2.315-.779.48-1.609 1.1-2.43 1.903-.82.803-1.458 1.619-1.953 2.388-1.417 2.195-.224 4.868 2.188 5.863Z"/><path fill="#007fb4" d="M19.53 20.936a1.001 1.001 0 0 0-.914 1.779l2.813 1.445a1.001 1.001 0 0 0 1.188-1.573 1 1 0 0 0 1.598-1.154l-1.383-2.843a1.001 1.001 0 0 0-1.799.876l1.384 2.843c.045.092.102.174.168.245a1.003 1.003 0 0 0-.241-.174l-2.813-1.444Zm6.976 8.936c.496-.243.702-.84.461-1.338l-1.384-2.843a1.003 1.003 0 0 0-.168-.245c.07.068.15.127.241.174l2.813 1.444a1.001 1.001 0 0 0 .915-1.779L26.57 23.84a1.001 1.001 0 0 0-1.188 1.573 1 1 0 0 0-1.598 1.154l1.383 2.843c.243.496.84.703 1.338.462Z"/><path fill="#c8e6ff" d="M21.141 26.798A4.001 4.001 0 0 0 28 24.043 4.001 4.001 0 0 0 24.042 20 4.003 4.003 0 0 0 20 23.956a4.002 4.002 0 0 0 1.141 2.842Z"/><path fill="none" d="M24 20.04a3.961 3.961 0 0 0-2.8 6.76 3.961 3.961 0 0 0 5.6 0 3.961 3.961 0 0 0 0-5.6 3.961 3.961 0 0 0-2.8-1.16Z"/></svg>