<svg xmlns="http://www.w3.org/2000/svg" width="48" height="48"><path fill="#55b4ed" fill-opacity=".667" d="M20.068 16.843C20.52 19.823 21.57 23.37 24 24c-2.43-.631-5.073 1.957-6.917 4.34-1.597 2.063-1.303 4.975 1.018 6.175.813.42 1.772.811 2.884 1.1 1.11.288 2.14.414 3.054.442 2.611.08 4.285-2.321 3.893-4.9C27.48 28.177 26.43 24.63 24 24c2.43.631 5.073-1.957 6.917-4.34 1.597-2.063 1.303-4.975-1.018-6.176-.813-.42-1.772-.81-2.884-1.099a13.801 13.801 0 0 0-3.054-.442c-2.611-.08-4.285 2.321-3.893 4.9Z"/><path fill="#007fb4" fill-opacity=".667" d="M24.319 18.59a1.001 1.001 0 0 0-1.996.135l.214 3.155a1.001 1.001 0 0 0 1.96.206 1 1 0 0 0 1.813.774l1.721-2.653a1.001 1.001 0 0 0-1.678-1.088l-1.722 2.652a1.003 1.003 0 0 0-.123.27c.023-.093.031-.194.025-.296l-.214-3.155Zm-4.056 10.586c.464.3 1.083.169 1.384-.295l1.722-2.652c.055-.086.096-.178.123-.27-.023.093-.031.194-.025.296l.214 3.155a1.001 1.001 0 0 0 1.996-.135l-.214-3.155a1.001 1.001 0 0 0-1.96-.206 1 1 0 0 0-1.813-.774l-1.721 2.653c-.3.463-.169 1.082.294 1.383Z"/><path fill="#c8e6ff" d="M20.128 22.995a4.001 4.001 0 0 0 5.899 4.453 4.001 4.001 0 0 0 1.421-5.476 4.003 4.003 0 0 0-5.474-1.42 4.002 4.002 0 0 0-1.846 2.443Z"/><path fill="#006590" fill-opacity=".079" d="M24 17.36A6.642 6.642 0 0 0 17.36 24 6.642 6.642 0 0 0 24 30.64 6.642 6.642 0 0 0 30.64 24 6.642 6.642 0 0 0 24 17.36Z"/></svg>