<svg xmlns="http://www.w3.org/2000/svg" width="48" height="48"><path fill="#55b4ed" d="M16.786 27.825C19.77 27.418 23.333 26.421 24 24c-.667 2.42 1.882 5.101 4.237 6.98 2.04 1.628 4.956 1.377 6.19-.926.432-.806.837-1.76 1.142-2.867.305-1.107.446-2.133.487-3.047.12-2.61-2.257-4.32-4.842-3.965C28.23 20.582 24.667 21.579 24 24c.667-2.42-1.882-5.101-4.237-6.98-2.04-1.628-4.956-1.377-6.19.926-.432.806-.837 1.76-1.142 2.867a13.801 13.801 0 0 0-.487 3.047c-.12 2.61 2.257 4.32 4.842 3.965Z"/><path fill="#007fb4" d="M18.596 23.601A1.001 1.001 0 0 0 18.7 25.6l3.158-.167a1.001 1.001 0 0 0 .235-1.957 1 1 0 0 0 .8-1.801l-2.627-1.761a1.001 1.001 0 0 0-1.113 1.662l2.627 1.76c.085.057.176.1.269.128a1.003 1.003 0 0 0-.296-.029l-3.158.167Zm10.524 4.212a1.001 1.001 0 0 0-.274-1.388l-2.627-1.76a1.003 1.003 0 0 0-.269-.128c.094.024.194.034.296.029l3.158-.167A1.001 1.001 0 0 0 29.3 22.4l-3.158.167a1.001 1.001 0 0 0-.235 1.957 1 1 0 0 0-.8 1.801l2.627 1.761c.458.307 1.08.185 1.387-.274Z"/><path fill="#c8e6ff" d="M22.938 27.856a4.001 4.001 0 0 0 4.54-5.831 4.001 4.001 0 0 0-5.454-1.503 4.003 4.003 0 0 0-1.503 5.453 4.002 4.002 0 0 0 2.417 1.881Z"/><path fill="none" d="M24 20.04a3.961 3.961 0 0 0-2.8 6.76 3.961 3.961 0 0 0 5.6 0 3.961 3.961 0 0 0 0-5.6 3.961 3.961 0 0 0-2.8-1.16Z"/></svg>