<svg xmlns="http://www.w3.org/2000/svg" width="48" height="48"><path fill="#55b4ed" fill-opacity=".133" d="M29.765 18.217C27.032 19.487 23.923 21.49 24 24c-.077-2.51-3.303-4.319-6.108-5.42-2.428-.953-5.14.147-5.64 2.712a13.801 13.801 0 0 0-.246 3.076c.035 1.147.203 2.17.433 3.055.656 2.529 3.431 3.461 5.796 2.36C20.968 28.513 24.077 26.51 24 24c.077 2.51 3.303 4.319 6.108 5.42 2.428.953 5.14-.147 5.641-2.712.175-.897.28-1.928.245-3.076a13.801 13.801 0 0 0-.433-3.055c-.656-2.529-3.431-3.461-5.796-2.36Z"/><path fill="#007fb4" fill-opacity=".133" d="M29.281 22.787a1.001 1.001 0 0 0-.69-1.878L25.623 22a1.001 1.001 0 0 0 .353 1.94 1 1 0 0 0-.233 1.956l3.03.908a1.001 1.001 0 0 0 .573-1.916l-3.03-.908a1.003 1.003 0 0 0-.294-.042c.097-.005.195-.025.291-.06l2.968-1.091Zm-11.298-.92c-.158.53.142 1.087.671 1.245l3.03.908c.097.029.197.043.294.042a1.003 1.003 0 0 0-.291.06l-2.968 1.091a1.001 1.001 0 0 0 .69 1.878L22.377 26a1.001 1.001 0 0 0-.353-1.94 1 1 0 0 0 .233-1.956l-3.03-.908a1.001 1.001 0 0 0-1.244.671Z"/><path fill="#c8e6ff" d="M23.877 20.002a4.001 4.001 0 0 0-2.617 6.911 4.001 4.001 0 0 0 5.654-.173 4.003 4.003 0 0 0-.173-5.653 4.002 4.002 0 0 0-2.864-1.085Z"/><path fill="#006590" fill-opacity=".95" d="M24 13.072A10.932 10.932 0 0 0 13.072 24 10.932 10.932 0 0 0 24 34.928 10.932 10.932 0 0 0 34.928 24 10.932 10.932 0 0 0 24 13.072Z"/></svg>