<svg xmlns="http://www.w3.org/2000/svg" width="48" height="48"><path fill="#55b4ed" d="M15.911 25.118c2.945.642 6.632.927 8.089-1.118-1.457 2.045.018 5.437 1.586 8.01 1.356 2.229 4.182 2.993 6.131 1.253a13.801 13.801 0 0 0 2.057-2.3 13.801 13.801 0 0 0 1.502-2.696c1.008-2.41-.638-4.831-3.187-5.385C29.144 22.24 25.457 21.955 24 24c1.457-2.045-.018-5.437-1.586-8.01-1.356-2.229-4.182-2.993-6.132-1.254-.682.61-1.39 1.366-2.056 2.301a13.801 13.801 0 0 0-1.502 2.696c-1.008 2.41.638 4.831 3.187 5.385Z"/><path fill="#007fb4" d="M19.06 21.772a1.001 1.001 0 0 0-.586 1.912l3.024.926a1.001 1.001 0 0 0 .892-1.757 1 1 0 0 0 1.37-1.417l-1.864-2.556a1.001 1.001 0 0 0-1.616 1.18l1.863 2.555c.06.082.131.153.21.211a1.003 1.003 0 0 0-.269-.128l-3.024-.926Zm8.441 7.566c.446-.326.544-.951.219-1.398l-1.863-2.555a1.003 1.003 0 0 0-.21-.211c.08.054.171.098.269.128l3.024.926a1.001 1.001 0 0 0 .586-1.912l-3.024-.926a1.001 1.001 0 0 0-.892 1.757 1 1 0 0 0-1.37 1.417l1.864 2.556c.326.445.95.543 1.397.218Z"/><path fill="#c8e6ff" d="M21.68 27.258a4.001 4.001 0 0 0 6.264-3.92 4.001 4.001 0 0 0-4.607-3.283 4.003 4.003 0 0 0-3.282 4.607 4.002 4.002 0 0 0 1.624 2.596Z"/><path fill="none" d="M24 20.04a3.961 3.961 0 0 0-2.8 6.76 3.961 3.961 0 0 0 5.6 0 3.961 3.961 0 0 0 0-5.6 3.961 3.961 0 0 0-2.8-1.16Z"/></svg>