<svg xmlns="http://www.w3.org/2000/svg" width="48" height="48"><path fill="#55b4ed" d="M16.7 27.66c2.995-.34 6.578-1.255 7.3-3.66-.722 2.405 1.765 5.142 4.078 7.075 2 1.674 4.922 1.488 6.208-.786.451-.796.878-1.74 1.208-2.84.33-1.1.494-2.122.556-3.035.178-2.607-2.159-4.37-4.75-4.074-2.995.34-6.578 1.255-7.3 3.66.722-2.405-1.765-5.142-4.078-7.075-2-1.674-4.922-1.488-6.21.786-.45.796-.876 1.74-1.206 2.84-.33 1.1-.494 2.122-.556 3.035-.178 2.607 2.159 4.37 4.75 4.074Z"/><path fill="#007fb4" d="M18.606 23.479a1.001 1.001 0 0 0 .06 2l3.16-.096a1.001 1.001 0 0 0 .28-1.951 1 1 0 0 0 .841-1.783l-2.586-1.82a1.001 1.001 0 0 0-1.15 1.636l2.585 1.82c.084.059.174.104.266.134a1.003 1.003 0 0 0-.295-.036l-3.16.096Zm10.426 4.45a1.001 1.001 0 0 0-.242-1.394l-2.586-1.82a1.003 1.003 0 0 0-.266-.134c.093.026.193.039.295.036l3.16-.096a1.001 1.001 0 0 0-.059-2l-3.16.096a1.001 1.001 0 0 0-.28 1.951 1 1 0 0 0-.841 1.783l2.586 1.82a1.001 1.001 0 0 0 1.393-.243Z"/><path fill="#c8e6ff" d="M22.85 27.831a4.001 4.001 0 0 0 4.672-5.727 4.001 4.001 0 0 0-5.419-1.626 4.003 4.003 0 0 0-1.625 5.417 4.002 4.002 0 0 0 2.372 1.936Z"/><path fill="none" d="M24 20.04a3.961 3.961 0 0 0-2.8 6.76 3.961 3.961 0 0 0 5.6 0 3.961 3.961 0 0 0 0-5.6 3.961 3.961 0 0 0-2.8-1.16Z"/></svg>