<svg xmlns="http://www.w3.org/2000/svg" width="48" height="48"><path fill="#55b4ed" d="M16.813 27.876C19.796 27.447 23.35 26.426 24 24c-.65 2.425 1.918 5.088 4.286 6.95 2.05 1.614 4.965 1.342 6.183-.97.427-.809.825-1.765 1.122-2.874.297-1.11.43-2.137.465-3.05.102-2.611-2.287-4.304-4.869-3.932-2.983.429-6.537 1.45-7.187 3.876.65-2.425-1.918-5.088-4.286-6.95-2.05-1.614-4.965-1.342-6.184.97-.426.809-.824 1.765-1.121 2.874a13.801 13.801 0 0 0-.465 3.05c-.102 2.611 2.287 4.304 4.869 3.932Z"/><path fill="#007fb4" d="M18.593 23.64a1.001 1.001 0 0 0 .12 1.996l3.156-.19a1.001 1.001 0 0 0 .221-1.958 1 1 0 0 0 .788-1.806l-2.64-1.743a1.001 1.001 0 0 0-1.1 1.67l2.638 1.742c.086.056.177.098.27.125a1.003 1.003 0 0 0-.296-.026l-3.157.19Zm10.554 4.137a1.001 1.001 0 0 0-.284-1.386l-2.64-1.742a1.003 1.003 0 0 0-.269-.125c.094.023.194.032.296.026l3.157-.19a1.001 1.001 0 0 0-.12-1.996l-3.156.19a1.001 1.001 0 0 0-.221 1.958 1 1 0 0 0-.788 1.806l2.64 1.743a1.001 1.001 0 0 0 1.385-.284Z"/><path fill="#c8e6ff" d="M22.965 27.864A4.001 4.001 0 0 0 27.464 22a4.001 4.001 0 0 0-5.465-1.464A4.003 4.003 0 0 0 20.535 26a4.002 4.002 0 0 0 2.43 1.865Z"/><path fill="none" d="M24 20.04a3.961 3.961 0 0 0-2.8 6.76 3.961 3.961 0 0 0 5.6 0 3.961 3.961 0 0 0 0-5.6 3.961 3.961 0 0 0-2.8-1.16Z"/></svg>