<svg xmlns="http://www.w3.org/2000/svg" width="48" height="48"><path fill="#55b4ed" fill-opacity=".4" d="M27.394 16.573c-2.12 2.141-4.339 5.1-3.394 7.427-.945-2.326-4.598-2.901-7.611-2.958-2.609-.05-4.77 1.925-4.346 4.503.147.903.407 1.906.839 2.97a13.801 13.801 0 0 0 1.469 2.714c1.494 2.143 4.42 2.052 6.255.198 2.12-2.141 4.339-5.1 3.394-7.427.945 2.326 4.598 2.901 7.611 2.958 2.609.05 4.77-1.925 4.347-4.504a13.864 13.864 0 0 0-.84-2.969 13.801 13.801 0 0 0-1.469-2.714c-1.494-2.143-4.42-2.052-6.255-.198Z"/><path fill="#007fb4" fill-opacity=".4" d="M28.53 21.026a1.001 1.001 0 0 0-1.3-1.52l-2.403 2.055a1.001 1.001 0 0 0 1.005 1.695 1 1 0 0 0 .462 1.916l3.155-.202a1.001 1.001 0 0 0-.128-1.996l-3.156.202c-.102.007-.2.028-.29.063.088-.038.174-.091.252-.158l2.403-2.055Zm-10.913 3.066c.036.551.51.97 1.062.934l3.156-.202c.102-.007.2-.028.29-.063-.088.038-.174.091-.252.158l-2.403 2.055a1.001 1.001 0 0 0 1.3 1.52l2.403-2.055a1.001 1.001 0 0 0-1.005-1.695 1 1 0 0 0-.462-1.916l-3.155.202a1.001 1.001 0 0 0-.934 1.062Z"/><path fill="#c8e6ff" d="M22.495 20.294a4.001 4.001 0 0 0-.051 7.39 4.001 4.001 0 0 0 5.241-2.128 4.003 4.003 0 0 0-2.128-5.24 4.002 4.002 0 0 0-3.062-.022Z"/><path fill="#006590" fill-opacity=".386" d="M24 15.216A8.787 8.787 0 0 0 15.216 24 8.787 8.787 0 0 0 24 32.784 8.787 8.787 0 0 0 32.784 24 8.787 8.787 0 0 0 24 15.216Z"/></svg>