<svg xmlns="http://www.w3.org/2000/svg" width="48" height="48"><path fill="#55b4ed" fill-opacity=".8" d="M17.346 19.268C19.049 21.753 21.537 24.49 24 24c-2.463.49-3.715 3.97-4.339 6.918-.54 2.552.992 5.046 3.604 5.116.915.025 1.949-.04 3.075-.264a13.801 13.801 0 0 0 2.942-.932c2.386-1.063 2.848-3.954 1.372-6.106C28.951 26.247 26.463 23.51 24 24c2.463-.49 3.715-3.97 4.339-6.918.54-2.552-.992-5.046-3.604-5.117a13.864 13.864 0 0 0-3.075.265 13.801 13.801 0 0 0-2.942.932c-2.386 1.063-2.848 3.954-1.372 6.106Z"/><path fill="#007fb4" fill-opacity=".8" d="M21.933 18.99a1.001 1.001 0 0 0-1.739.99l1.566 2.748a1.001 1.001 0 0 0 1.855-.667 1 1 0 0 0 1.968-.093l.396-3.137a1.001 1.001 0 0 0-1.985-.25l-.396 3.138c-.012.1-.01.201.008.297a1.003 1.003 0 0 0-.108-.278l-1.565-2.747Zm.955 11.296a1.001 1.001 0 0 0 1.118-.867l.396-3.138c.012-.1.01-.201-.008-.297.021.095.057.189.108.278l1.565 2.747a1.001 1.001 0 0 0 1.739-.99l-1.566-2.747a1.001 1.001 0 0 0-1.855.667 1 1 0 0 0-1.968.093l-.396 3.137c-.069.548.32 1.048.867 1.117Z"/><path fill="#c8e6ff" d="M20.077 24.78a4.001 4.001 0 0 0 7.248 1.442 4.001 4.001 0 0 0-1.103-5.548 4.003 4.003 0 0 0-5.547 1.103 4.002 4.002 0 0 0-.598 3.003Z"/><path fill="#006590" fill-opacity=".025" d="M24 18.432A5.57 5.57 0 0 0 18.432 24 5.57 5.57 0 0 0 24 29.568 5.57 5.57 0 0 0 29.568 24 5.57 5.57 0 0 0 24 18.432Z"/></svg>