<svg xmlns="http://www.w3.org/2000/svg" width="48" height="48"><path fill="none" d="M29.939 18.396C27.169 19.582 24 21.489 24 24c0-2.511-3.169-4.418-5.939-5.604-2.398-1.028-5.143-.011-5.721 2.537-.203.892-.34 1.919-.34 3.067 0 1.148.137 2.175.34 3.067.578 2.548 3.323 3.565 5.721 2.537C20.831 28.418 24 26.511 24 24c0 2.511 3.169 4.418 5.939 5.604 2.398 1.028 5.143.011 5.722-2.537.202-.892.339-1.919.339-3.067 0-1.148-.137-2.175-.34-3.067-.578-2.548-3.323-3.565-5.721-2.537Z"/><path fill="none" d="M29.316 22.949a1.001 1.001 0 0 0-.632-1.898l-3 1A1.001 1.001 0 0 0 25.977 24a1 1 0 0 0-.293 1.949l3 1a1.001 1.001 0 0 0 .632-1.898l-3-1a1.003 1.003 0 0 0-.293-.051c.097-.002.196-.019.293-.051l3-1Zm-11.265-1.265c-.174.524.109 1.09.633 1.265l3 1c.097.032.196.049.293.051a1.003 1.003 0 0 0-.293.051l-3 1a1.001 1.001 0 0 0 .632 1.898l3-1A1.001 1.001 0 0 0 22.023 24a1 1 0 0 0 .293-1.949l-3-1a1.001 1.001 0 0 0-1.265.633Z"/><path fill="#c8e6ff" d="M24 20a4.001 4.001 0 0 0-2.828 6.828 4.001 4.001 0 0 0 5.657 0 4.003 4.003 0 0 0 0-5.656A4.002 4.002 0 0 0 24 20Z"/><path fill="#006590" d="M24 12a12.004 12.004 0 0 0-12 12 12.004 12.004 0 0 0 12 12 12.004 12.004 0 0 0 12-12 12.004 12.004 0 0 0-12-12Z"/></svg>