<svg xmlns="http://www.w3.org/2000/svg" width="48" height="48"><path fill="#55b4ed" fill-opacity=".933" d="M16.16 21.72c2.425 1.787 5.675 3.552 7.84 2.28-2.165 1.272-2.203 4.97-1.822 7.96.329 2.588 2.597 4.44 5.086 3.646.872-.277 1.827-.679 2.816-1.26.99-.582 1.806-1.22 2.472-1.848 1.904-1.79 1.39-4.671-.711-6.217C29.415 24.493 26.165 22.728 24 24c2.165-1.272 2.203-4.97 1.822-7.96-.329-2.588-2.597-4.44-5.087-3.647-.87.278-1.826.68-2.815 1.262-.99.581-1.806 1.22-2.472 1.847-1.904 1.79-1.39 4.671.711 6.217Z"/><path fill="#007fb4" fill-opacity=".933" d="M20.4 19.95a1.001 1.001 0 0 0-1.316 1.506l2.382 2.08a1.001 1.001 0 0 0 1.532-1.24 1 1 0 0 0 1.829-.735l-.658-3.093a1.001 1.001 0 0 0-1.957.416l.658 3.093c.022.1.058.194.105.279a1.003 1.003 0 0 0-.192-.227L20.4 19.95Zm4.618 10.352c.54-.115.884-.646.77-1.186l-.658-3.093a1.003 1.003 0 0 0-.105-.279c.05.083.116.16.192.227l2.383 2.08a1.001 1.001 0 0 0 1.316-1.507l-2.382-2.08a1.001 1.001 0 0 0-1.532 1.24 1 1 0 0 0-1.829.735l.658 3.093c.116.54.646.885 1.187.77Z"/><path fill="#c8e6ff" d="M20.552 26.027a4.001 4.001 0 0 0 7.319-1.022 4.001 4.001 0 0 0-2.866-4.877 4.003 4.003 0 0 0-4.877 2.866 4.002 4.002 0 0 0 .424 3.033Z"/><path fill="#006590" fill-opacity=".002" d="M24 19.504a4.497 4.497 0 0 0-3.179 7.675 4.497 4.497 0 0 0 6.358 0 4.497 4.497 0 0 0 0-6.358A4.497 4.497 0 0 0 24 19.504Z"/></svg>