<svg
    xmlns="http://www.w3.org/2000/svg"
    viewBox="0 0 48 48"
    id="vector"
    width="48px"
    height="48px">
    <g
        id="bowtie"
        transform="translate(12 12) rotate(-120.44461983302845 12 12)">
        <path
            id="path_2"
            d="M 17.939 6.396 C 15.169 7.582 12 9.489 12 12 C 12 9.489 8.831 7.582 6.061 6.396 C 3.663 5.368 0.918 6.385 0.34 8.933 C 0.137 9.825 0 10.852 0 12 C 0 13.148 0.137 14.175 0.34 15.067 C 0.918 17.615 3.663 18.632 6.061 17.604 C 8.831 16.418 12 14.511 12 12 C 12 14.511 15.169 16.418 17.939 17.604 C 20.337 18.632 23.082 17.615 23.661 15.067 C 23.863 14.175 24 13.148 24 12 C 24 10.852 23.863 9.825 23.66 8.933 C 23.082 6.385 20.337 5.368 17.939 6.396 Z"
            fill="#55b4ed"
            fill-opacity="0.9333333333333333"
            stroke-width="1"/>
        <path
            id="path_3"
            d="M 17.316 10.949 C 17.84 10.774 18.123 10.208 17.949 9.684 C 17.774 9.16 17.208 8.877 16.684 9.051 L 13.684 10.051 C 13.16 10.226 12.877 10.792 13.051 11.316 C 13.188 11.728 13.567 11.99 13.977 12 C 13.567 12.01 13.188 12.272 13.051 12.684 C 12.877 13.208 13.16 13.774 13.684 13.949 L 16.684 14.949 C 17.208 15.123 17.774 14.84 17.949 14.316 C 18.123 13.792 17.84 13.226 17.316 13.051 L 14.316 12.051 C 14.219 12.019 14.12 12.002 14.023 12 C 14.12 11.998 14.219 11.981 14.316 11.949 L 17.316 10.949 Z M 6.051 9.684 C 5.877 10.208 6.16 10.774 6.684 10.949 L 9.684 11.949 C 9.781 11.981 9.88 11.998 9.977 12 C 9.88 12.002 9.781 12.019 9.684 12.051 L 6.684 13.051 C 6.16 13.226 5.877 13.792 6.051 14.316 C 6.226 14.84 6.792 15.123 7.316 14.949 L 10.316 13.949 C 10.84 13.774 11.123 13.208 10.949 12.684 C 10.812 12.272 10.433 12.01 10.023 12 C 10.433 11.99 10.812 11.728 10.949 11.316 C 11.123 10.792 10.84 10.226 10.316 10.051 L 7.316 9.051 C 6.792 8.877 6.226 9.16 6.051 9.684 Z"
            fill="#007fb4"
            fill-opacity="0.9333333333333333"
            stroke-width="1"/>
        <path
            id="path_4"
            d="M 12 8 C 10.94 8 9.922 8.422 9.172 9.172 C 8.422 9.921 8 10.94 8 12 C 8 13.06 8.422 14.079 9.172 14.828 C 9.922 15.578 10.94 16 12 16 C 13.061 16 14.079 15.578 14.829 14.828 C 15.578 14.079 16 13.06 16 12 C 16 10.94 15.578 9.921 14.829 9.172 C 14.079 8.422 13.061 8 12 8 Z"
            fill="#c8e6ff"
            stroke-width="1"/>
    </g>
    <g
        id="group"
        transform="translate(12 12) translate(12 12) scale(0.3746666666666667 0.3746666666666667) translate(-12 -12)">
        <path
            id="dot"
            d="M 12 0 C 8.82 0 5.766 1.266 3.516 3.516 C 1.266 5.766 0 8.82 0 12 C 0 15.18 1.266 18.234 3.516 20.484 C 5.766 22.734 8.82 24 12 24 C 15.18 24 18.234 22.734 20.484 20.484 C 22.734 18.234 24 15.18 24 12 C 24 8.82 22.734 5.766 20.484 3.516 C 18.234 1.266 15.18 0 12 0 Z"
            fill="#006590"
            fill-opacity="0.002440301015126267"
            stroke-width="1"/>
    </g>
</svg>
