<svg xmlns="http://www.w3.org/2000/svg" width="48" height="48"><path fill="#55b4ed" fill-opacity=".267" d="M29.075 17.603C26.503 19.173 23.64 21.515 24 24c-.36-2.485-3.77-3.918-6.68-4.695-2.521-.674-5.092.726-5.3 3.33-.072.912-.06 1.948.104 3.085.164 1.136.447 2.132.776 2.986.937 2.44 3.8 3.052 6.025 1.691C21.497 28.827 24.36 26.485 24 24c.36 2.485 3.77 3.918 6.68 4.695 2.521.674 5.092-.726 5.3-3.33.072-.912.06-1.948-.104-3.085a13.801 13.801 0 0 0-.776-2.986c-.937-2.44-3.8-3.052-6.025-1.691Z"/><path fill="#007fb4" fill-opacity=".267" d="M29.11 22.198a1.001 1.001 0 0 0-.897-1.788l-2.826 1.42a1.001 1.001 0 0 0 .57 1.887 1 1 0 0 0-.011 1.97l3.112.56a1.001 1.001 0 0 0 .354-1.969l-3.113-.56c-.1-.017-.2-.02-.297-.008.096-.016.191-.047.283-.092l2.826-1.42Zm-11.33.362a1.001 1.001 0 0 0 .808 1.162l3.113.56c.1.017.2.02.297.008a1.003 1.003 0 0 0-.283.092l-2.826 1.42a1.001 1.001 0 0 0 .898 1.788l2.826-1.42a1.001 1.001 0 0 0-.57-1.887 1 1 0 0 0 .011-1.97l-3.112-.56a1.001 1.001 0 0 0-1.161.807Z"/><path fill="#c8e6ff" d="M23.427 20.041a4.001 4.001 0 0 0-1.82 7.163 4.001 4.001 0 0 0 5.598-.81 4.003 4.003 0 0 0-.81-5.598 4.002 4.002 0 0 0-2.968-.755Z"/><path fill="#006590" fill-opacity=".722" d="M24 14.144A9.86 9.86 0 0 0 14.144 24 9.86 9.86 0 0 0 24 33.856 9.86 9.86 0 0 0 33.856 24 9.86 9.86 0 0 0 24 14.144Z"/></svg>